<svg id="Capa_1" enable-background="new 0 0 512.01 512.01" height="512" viewBox="0 0 512.01 512.01" width="512" xmlns="http://www.w3.org/2000/svg" xmlns:xlink="http://www.w3.org/1999/xlink"><linearGradient id="SVGID_1_" gradientUnits="userSpaceOnUse" x1="256.005" x2="256.005" y1="494.102" y2="36.068"><stop offset="0" stop-color="#fd5900"/><stop offset="1" stop-color="#ffde00"/></linearGradient><g><g><path d="m498.836 55.617-42.426-42.426c-17.586-17.586-46.051-17.589-63.64 0l-324.721 324.72c-1.374 1.373-2.633 3.32-3.3 4.976l-63.52 148.215c-2.416 5.637-1.157 12.178 3.181 16.515 4.352 4.352 10.897 5.589 16.515 3.18l148.213-63.52c1.64-.673 3.507-1.83 4.977-3.3l324.722-324.721c17.544-17.545 17.544-46.094-.001-63.639zm-455.261 412.834 40.14-93.661 53.52 53.52zm119.933-56.294-63.639-63.639 239.868-239.868 63.64 63.64zm314.115-314.114-53.033 53.033-63.64-63.64 53.033-53.033c5.863-5.862 15.35-5.863 21.213 0l42.426 42.426c5.849 5.849 5.849 15.366.001 21.214z" fill="url(#SVGID_1_)"/></g></g></svg>
