<?xml version="1.0"?>
<svg xmlns="http://www.w3.org/2000/svg" xmlns:xlink="http://www.w3.org/1999/xlink" id="Layer_2" data-name="Layer 2" viewBox="0 0 64 64" width="512" height="512"><defs><linearGradient id="linear-gradient" x1="62.5" y1="1.5" x2="2.5" y2="61.5" gradientUnits="userSpaceOnUse"><stop offset="0" stop-color="#f7941e"/><stop offset="1" stop-color="#ee2a7b"/></linearGradient><linearGradient id="linear-gradient-2" x1="48" y1="-13" x2="-12" y2="47" xlink:href="#linear-gradient"/><linearGradient id="linear-gradient-3" x1="73" y1="12" x2="13" y2="72" xlink:href="#linear-gradient"/><linearGradient id="linear-gradient-4" x1="62.527" y1="1.527" x2="2.527" y2="61.527" xlink:href="#linear-gradient"/></defs><path d="M32,29a1,1,0,0,0-1,1v4a1,1,0,0,0,2,0V30A1,1,0,0,0,32,29Z" style="fill:url(#linear-gradient)"/><path d="M7,31a1,1,0,0,0,1-1V26a1,1,0,0,0-2,0v4A1,1,0,0,0,7,31Z" style="fill:url(#linear-gradient-2)"/><path d="M57,25a1,1,0,0,0-1,1v4a1,1,0,0,0,2,0V26A1,1,0,0,0,57,25Z" style="fill:url(#linear-gradient-3)"/><path d="M55.765,51.92a.97.97,0,0,0,.1-.119A30.983,30.983,0,0,0,32.03,1H32A30.98,30.98,0,0,0,19.671,3.567a.951.951,0,0,0-.126.057,30.963,30.963,0,0,0-8.213,5.3,1,1,0,1,0,1.336,1.488A28.976,28.976,0,0,1,19,6.093v5.493L11.646,18.94,6.541,18.21a28.8,28.8,0,0,1,3.092-4.633,1,1,0,1,0-1.544-1.271,30.963,30.963,0,0,0-.1,39.238,5.727,5.727,0,0,0,.194.241c.014.013.023.029.037.041A31.036,31.036,0,0,0,25.141,62.219a.979.979,0,0,0,.177.041A30.968,30.968,0,0,0,40.244,61.9l.031-.008a30.823,30.823,0,0,0,5.157-1.927,1,1,0,1,0-.865-1.8,28.894,28.894,0,0,1-4.227,1.63l-2.129-2.839L42.49,50.1l10.552,1.865a29.054,29.054,0,0,1-4.609,3.951,1,1,0,0,0,1.133,1.648,31.046,31.046,0,0,0,6.108-5.54A.977.977,0,0,0,55.765,51.92ZM42.672,48.1l-4.02-8.12L41.689,32h7.746L54,39.576v10.53Zm-21.338-.011-11.459,1.8L10,39.292,14.554,32h7.756l3.037,7.983ZM7.9,48.057A28.828,28.828,0,0,1,3.469,36.991l4.525,2.585ZM24.166,31.25,32,23.447l7.834,7.8-2.961,7.785H27.127ZM43.655,12.117,50.929,20.3,49.165,30H41.413L33,21.62V14.781ZM60.561,37.174A29,29,0,0,1,56,48.311V39.869Zm.333-2.52-5.55,3.278-4.293-7.125,1.8-9.92,5.6-.8A28.819,28.819,0,0,1,61.03,32C61.03,32.892,60.975,33.776,60.895,34.655ZM57.531,18.2l-5.14.734L45,10.619V6.074A29.2,29.2,0,0,1,57.531,18.2ZM31,3.024V7a1,1,0,0,0,2,0V3.025A28.808,28.808,0,0,1,43,5.161v5.058l-11.041,2.76L21,11.153V5.183A28.963,28.963,0,0,1,31,3.024ZM20.343,13.071,31,14.847V21.62L22.587,30H14.835l-1.757-9.664ZM5.6,20.1l5.548.793,1.8,9.91L8.661,37.655,3.145,34.5c-.071-.826-.115-1.659-.115-2.5A29.05,29.05,0,0,1,5.6,20.1Zm5.237,31.667,10.727-1.682L26.8,57.065l-1.818,3.065A29.014,29.014,0,0,1,10.833,51.763ZM32.03,61a29.037,29.037,0,0,1-4.98-.437L28.57,58H36.5l1.748,2.33A29.1,29.1,0,0,1,32.03,61Zm4.416-5H28.5l-5.331-7.108,3.889-7.857h9.884l3.914,7.908Z" style="fill:url(#linear-gradient-4)"/></svg>
